<?xml version="1.0" encoding="UTF-8"?>
<svg id="Layer_2" data-name="Layer 2" xmlns="http://www.w3.org/2000/svg" viewBox="0 0 433.31 392.14">
  <defs>
    <style>
      .cls-1 {
        fill: #30556a;
        stroke-width: 0px;
      }
    </style>
  </defs>
  <g id="Layer_1-2" data-name="Layer 1">
    <g>
      <path class="cls-1" d="M119.57,0c29.15.65,48.45,14.49,62.4,37.89,3.99,6.69,6.3,14.35,9.9,21.29,1.41,2.71,4.28,4.66,6.49,6.96,2.06-2.3,5.04-4.25,6.02-6.94,7.19-19.62,17.41-37.07,35.78-48.09,33.48-20.09,70.9-7.63,93.11,20.75,24.1,30.81,11.82,89.13-10.32,114.73-18.1,20.94-40.12,36.34-63.66,50.23-15.68,9.25-30.86,19.39-45.93,29.61-4.47,3.03-8.05,7.52-11.63,11.69-2.51,2.92-4.42,2.75-6.71.11-16.49-18.99-38.27-30.39-59.68-42.62-27.01-15.44-53.47-32.49-69.26-60.41-17.24-30.48-23.87-62.85-7.25-96.12,8.35-16.71,22.76-27.26,40.01-33.68,6.65-2.47,13.79-3.63,20.71-5.38Z"/>
      <path class="cls-1" d="M358.55,392.03c-18.07,0-36.14.3-54.2-.07-26.02-.53-51.55-5.01-76.75-11.15-28.25-6.88-56.33-14.42-84.55-21.42-14.61-3.63-25.6-12.59-36.41-22.42-22.13-20.14-44.75-39.74-67.07-59.68-2.82-2.52-5.07-5.7-7.52-8.63-4.91-5.9-3.23-11.46,4.19-13.35,9.84-2.5,19.34.11,27.82,4.34,14.19,7.09,27.92,15.17,41.41,23.55,5.81,3.61,9.93,10.06,15.86,13.33,7.14,3.94,15.45,5.73,23.16,8.67,16.44,6.27,32.68,13.14,49.31,18.84,7.5,2.57,15.72,3.37,23.69,4.19,8.43.87,16.97.77,25.45,1.18,6.01.29,10.91,2.66,15.08,7.21,1.42,1.55,4.53,1.57,6.86,2.29.17-2.68,1.54-6.73.31-7.8-4.65-4.03-9.76-8.87-15.41-10.11-10.27-2.25-21.06-2.84-31.63-2.84-13.17,0-24.88-4.34-36.76-9.12-15.15-6.1-30.57-11.51-45.87-17.22-2.78-1.04-5.73-1.78-8.32-3.17-3.83-2.06-8.74-3.78-7.75-9.56,1.05-6.09,5.05-10.32,11.1-10.66,8.41-.48,16.97-.35,25.32.7,7.54.95,14.99,3.09,22.27,5.39,19.69,6.22,39.04,3.22,58.48-1.2,21.3-4.85,42.48-10.62,64.04-13.68,11.6-1.65,24.14.33,35.78,2.86,11.47,2.49,19.27,10.92,21.55,22.81,1.33,6.97,4.79,8.8,11.39,8.69,18.7-.32,37.41.08,56.11-.18,5.72-.08,7.86,1.56,7.81,7.58-.25,26.56,0,53.13-.08,79.7-.04,10.99-.22,10.99-10.91,10.99-21.25,0-42.51,0-63.76,0v-.05Z"/>
      <path class="cls-1" d="M101.88,348.82c-2.31-1.08-4.99-1.72-6.86-3.31-21.66-18.41-43.29-36.85-64.72-55.52-8.79-7.66-17.11-15.88-25.59-23.9-2.95-2.79-6.54-5.82-3.66-10.3,3.24-5.04,8.29-3.79,13.26-2.85,4.98.94,5.11,3.92,4.71,7.96-.91,9.23,5.3,15.1,11.16,20.46,22.7,20.77,45.75,41.15,68.66,61.68,1.37,1.23,2.68,2.52,4.01,3.77-.33.67-.65,1.34-.98,2.01Z"/>
    </g>
  </g>
</svg>