<svg width="514" height="563" viewBox="0 0 514 563" fill="none" xmlns="http://www.w3.org/2000/svg">
<g clip-path="url(#clip0_287_12)">
<path d="M161.57 0C190.72 0.65 210.02 14.49 223.97 37.89C227.96 44.58 230.27 52.24 233.87 59.18C235.28 61.89 238.15 63.84 240.36 66.14C242.42 63.84 245.4 61.89 246.38 59.2C253.57 39.58 263.79 22.13 282.16 11.11C315.64 -8.98 353.06 3.48 375.27 31.86C399.37 62.67 387.09 120.99 364.95 146.59C346.85 167.53 324.83 182.93 301.29 196.82C285.61 206.07 270.43 216.21 255.36 226.43C250.89 229.46 247.31 233.95 243.73 238.12C241.22 241.04 239.31 240.87 237.02 238.23C220.53 219.24 198.75 207.84 177.34 195.61C150.33 180.17 123.87 163.12 108.08 135.2C90.8403 104.72 84.2103 72.35 100.83 39.08C109.18 22.37 123.59 11.82 140.84 5.4C147.49 2.93 154.63 1.77 161.55 0.02L161.57 0Z" fill="#30556A"/>
<path d="M400.55 392.03C382.48 392.03 364.41 392.33 346.35 391.96C320.33 391.43 294.8 386.95 269.6 380.81C241.35 373.93 213.27 366.39 185.05 359.39C170.44 355.76 159.45 346.8 148.64 336.97C126.51 316.83 103.89 297.23 81.5701 277.29C78.7501 274.77 76.5001 271.59 74.0501 268.66C69.1401 262.76 70.8201 257.2 78.2401 255.31C88.0801 252.81 97.5801 255.42 106.06 259.65C120.25 266.74 133.98 274.82 147.47 283.2C153.28 286.81 157.4 293.26 163.33 296.53C170.47 300.47 178.78 302.26 186.49 305.2C202.93 311.47 219.17 318.34 235.8 324.04C243.3 326.61 251.52 327.41 259.49 328.23C267.92 329.1 276.46 329 284.94 329.41C290.95 329.7 295.85 332.07 300.02 336.62C301.44 338.17 304.55 338.19 306.88 338.91C307.05 336.23 308.42 332.18 307.19 331.11C302.54 327.08 297.43 322.24 291.78 321C281.51 318.75 270.72 318.16 260.15 318.16C246.98 318.16 235.27 313.82 223.39 309.04C208.24 302.94 192.82 297.53 177.52 291.82C174.74 290.78 171.79 290.04 169.2 288.65C165.37 286.59 160.46 284.87 161.45 279.09C162.5 273 166.5 268.77 172.55 268.43C180.96 267.95 189.52 268.08 197.87 269.13C205.41 270.08 212.86 272.22 220.14 274.52C239.83 280.74 259.18 277.74 278.62 273.32C299.92 268.47 321.1 262.7 342.66 259.64C354.26 257.99 366.8 259.97 378.44 262.5C389.91 264.99 397.71 273.42 399.99 285.31C401.32 292.28 404.78 294.11 411.38 294C430.08 293.68 448.79 294.08 467.49 293.82C473.21 293.74 475.35 295.38 475.3 301.4C475.05 327.96 475.3 354.53 475.22 381.1C475.18 392.09 475 392.09 464.31 392.09C443.06 392.09 421.8 392.09 400.55 392.09V392.04V392.03Z" fill="#30556A"/>
<path d="M143.88 348.82C141.57 347.74 138.89 347.1 137.02 345.51C115.36 327.1 93.7305 308.66 72.3005 289.99C63.5105 282.33 55.1905 274.11 46.7105 266.09C43.7605 263.3 40.1705 260.27 43.0505 255.79C46.2905 250.75 51.3405 252 56.3105 252.94C61.2905 253.88 61.4205 256.86 61.0205 260.9C60.1105 270.13 66.3205 276 72.1805 281.36C94.8805 302.13 117.93 322.51 140.84 343.04C142.21 344.27 143.52 345.56 144.85 346.81C144.52 347.48 144.2 348.15 143.87 348.82H143.88Z" fill="#30556A"/>
</g>
<path d="M19.4905 481.236H2.01891L21.7036 421.599H43.8343L63.5189 481.236H46.0473L33.0019 438.023H32.536L19.4905 481.236ZM16.2291 457.707H49.0757V469.821H16.2291V457.707ZM78.2827 481.236V421.599H104.141C108.683 421.599 112.498 422.211 115.585 423.434C118.691 424.657 121.03 426.385 122.602 428.617C124.194 430.85 124.99 433.48 124.99 436.509C124.99 438.702 124.505 440.702 123.534 442.507C122.583 444.313 121.243 445.827 119.516 447.05C117.788 448.253 115.769 449.088 113.459 449.554V450.136C116.021 450.233 118.351 450.884 120.447 452.087C122.544 453.272 124.214 454.912 125.456 457.009C126.698 459.086 127.32 461.532 127.32 464.347C127.32 467.608 126.465 470.51 124.757 473.053C123.068 475.596 120.661 477.596 117.536 479.052C114.41 480.508 110.683 481.236 106.354 481.236H78.2827ZM94.473 468.307H102.044C104.762 468.307 106.8 467.802 108.159 466.793C109.518 465.764 110.197 464.25 110.197 462.25C110.197 460.852 109.877 459.668 109.237 458.697C108.596 457.727 107.684 456.989 106.499 456.484C105.335 455.98 103.927 455.727 102.277 455.727H94.473V468.307ZM94.473 445.71H101.112C102.529 445.71 103.782 445.487 104.869 445.041C105.956 444.594 106.8 443.953 107.402 443.119C108.023 442.264 108.334 441.226 108.334 440.003C108.334 438.159 107.674 436.751 106.354 435.781C105.034 434.791 103.364 434.295 101.345 434.295H94.473V445.71ZM142.076 481.236V421.599H158.266V444.895H179.698V421.599H195.889V481.236H179.698V457.94H158.266V481.236H142.076ZM210.15 421.599H228.204L239.852 445.827H240.318L251.965 421.599H270.019L248.122 462.483V481.236H232.048V462.483L210.15 421.599ZM319.61 421.599H335.8V459.804C335.8 464.347 334.713 468.278 332.539 471.597C330.384 474.898 327.375 477.45 323.512 479.256C319.649 481.042 315.164 481.935 310.059 481.935C304.914 481.935 300.411 481.042 296.547 479.256C292.684 477.45 289.675 474.898 287.52 471.597C285.385 468.278 284.317 464.347 284.317 459.804V421.599H300.508V458.406C300.508 460.251 300.915 461.901 301.731 463.357C302.546 464.793 303.672 465.919 305.109 466.734C306.564 467.55 308.215 467.957 310.059 467.957C311.922 467.957 313.573 467.55 315.009 466.734C316.446 465.919 317.572 464.793 318.387 463.357C319.202 461.901 319.61 460.251 319.61 458.406V421.599ZM375.461 481.236H352.515V421.599H375.228C381.363 421.599 386.662 422.793 391.127 425.181C395.612 427.55 399.067 430.966 401.494 435.431C403.94 439.877 405.163 445.206 405.163 451.418C405.163 457.63 403.949 462.968 401.523 467.433C399.096 471.879 395.66 475.295 391.215 477.683C386.769 480.052 381.518 481.236 375.461 481.236ZM368.705 467.492H374.879C377.829 467.492 380.343 467.016 382.421 466.065C384.517 465.113 386.109 463.473 387.196 461.144C388.303 458.814 388.856 455.572 388.856 451.418C388.856 447.263 388.293 444.021 387.167 441.692C386.061 439.362 384.43 437.722 382.275 436.771C380.14 435.819 377.519 435.344 374.413 435.344H368.705V467.492ZM421.674 481.236V421.599H437.864V444.895H459.296V421.599H475.486V481.236H459.296V457.94H437.864V481.236H421.674ZM508.384 421.599V481.236H492.194V421.599H508.384Z" fill="#D88754"/>
<path d="M97.0111 523.236V492.69H115.953V496.658H101.62V505.965H114.596V509.917H101.62V523.236H97.0111ZM153.614 507.963C153.614 511.224 153.017 514.028 151.824 516.375C150.631 518.712 148.995 520.511 146.917 521.774C144.849 523.027 142.497 523.653 139.862 523.653C137.218 523.653 134.856 523.027 132.778 521.774C130.71 520.511 129.079 518.707 127.886 516.36C126.693 514.014 126.096 511.215 126.096 507.963C126.096 504.702 126.693 501.903 127.886 499.566C129.079 497.22 130.71 495.42 132.778 494.167C134.856 492.904 137.218 492.273 139.862 492.273C142.497 492.273 144.849 492.904 146.917 494.167C148.995 495.42 150.631 497.22 151.824 499.566C153.017 501.903 153.614 504.702 153.614 507.963ZM149.05 507.963C149.05 505.477 148.647 503.384 147.842 501.684C147.046 499.974 145.953 498.681 144.561 497.806C143.178 496.921 141.612 496.479 139.862 496.479C138.102 496.479 136.531 496.921 135.149 497.806C133.767 498.681 132.674 499.974 131.868 501.684C131.073 503.384 130.675 505.477 130.675 507.963C130.675 510.449 131.073 512.547 131.868 514.257C132.674 515.957 133.767 517.25 135.149 518.135C136.531 519.01 138.102 519.447 139.862 519.447C141.612 519.447 143.178 519.01 144.561 518.135C145.953 517.25 147.046 515.957 147.842 514.257C148.647 512.547 149.05 510.449 149.05 507.963ZM184.463 492.69H189.086V512.781C189.086 514.918 188.584 516.813 187.58 518.463C186.575 520.104 185.164 521.396 183.344 522.341C181.524 523.276 179.392 523.743 176.945 523.743C174.509 523.743 172.382 523.276 170.562 522.341C168.742 521.396 167.33 520.104 166.326 518.463C165.322 516.813 164.82 514.918 164.82 512.781V492.69H169.428V512.408C169.428 513.79 169.732 515.018 170.338 516.092C170.955 517.166 171.825 518.011 172.948 518.627C174.072 519.234 175.404 519.537 176.945 519.537C178.497 519.537 179.834 519.234 180.958 518.627C182.091 518.011 182.956 517.166 183.553 516.092C184.159 515.018 184.463 513.79 184.463 512.408V492.69ZM225.901 492.69V523.236H221.665L206.139 500.834H205.855V523.236H201.247V492.69H205.512L221.053 515.122H221.337V492.69H225.901ZM247.972 523.236H238.084V492.69H248.285C251.278 492.69 253.848 493.302 255.996 494.525C258.144 495.738 259.789 497.483 260.933 499.76C262.086 502.027 262.663 504.746 262.663 507.918C262.663 511.1 262.081 513.835 260.918 516.121C259.765 518.408 258.094 520.168 255.907 521.401C253.719 522.624 251.074 523.236 247.972 523.236ZM242.692 519.209H247.718C250.045 519.209 251.979 518.771 253.52 517.896C255.061 517.011 256.215 515.734 256.981 514.063C257.746 512.383 258.129 510.335 258.129 507.918C258.129 505.522 257.746 503.489 256.981 501.818C256.225 500.148 255.096 498.88 253.595 498.015C252.093 497.15 250.229 496.717 248.002 496.717H242.692V519.209ZM274.917 523.236H270.025L281.017 492.69H286.341L297.334 523.236H292.442L283.806 498.239H283.567L274.917 523.236ZM275.737 511.274H291.606V515.152H275.737V511.274ZM302.089 496.658V492.69H325.729V496.658H316.198V523.236H311.605V496.658H302.089ZM341.021 492.69V523.236H336.413V492.69H341.021ZM379.726 507.963C379.726 511.224 379.13 514.028 377.937 516.375C376.743 518.712 375.108 520.511 373.03 521.774C370.962 523.027 368.61 523.653 365.975 523.653C363.33 523.653 360.969 523.027 358.89 521.774C356.822 520.511 355.192 518.707 353.998 516.36C352.805 514.014 352.209 511.215 352.209 507.963C352.209 504.702 352.805 501.903 353.998 499.566C355.192 497.22 356.822 495.42 358.89 494.167C360.969 492.904 363.33 492.273 365.975 492.273C368.61 492.273 370.962 492.904 373.03 494.167C375.108 495.42 376.743 497.22 377.937 499.566C379.13 501.903 379.726 504.702 379.726 507.963ZM375.163 507.963C375.163 505.477 374.76 503.384 373.954 501.684C373.159 499.974 372.065 498.681 370.673 497.806C369.291 496.921 367.725 496.479 365.975 496.479C364.215 496.479 362.644 496.921 361.262 497.806C359.88 498.681 358.786 499.974 357.981 501.684C357.185 503.384 356.788 505.477 356.788 507.963C356.788 510.449 357.185 512.547 357.981 514.257C358.786 515.957 359.88 517.25 361.262 518.135C362.644 519.01 364.215 519.447 365.975 519.447C367.725 519.447 369.291 519.01 370.673 518.135C372.065 517.25 373.159 515.957 373.954 514.257C374.76 512.547 375.163 510.449 375.163 507.963ZM415.586 492.69V523.236H411.351L395.824 500.834H395.541V523.236H390.932V492.69H395.198L410.739 515.122H411.023V492.69H415.586Z" fill="#30556A"/>
<path d="M118.822 540.654V538.767H131.995V540.654H126.472V556.332H124.345V540.654H118.822ZM138.444 556.606C137.255 556.606 136.211 556.323 135.314 555.757C134.422 555.191 133.724 554.399 133.221 553.381C132.724 552.364 132.475 551.174 132.475 549.814C132.475 548.441 132.724 547.244 133.221 546.22C133.724 545.197 134.422 544.402 135.314 543.836C136.211 543.27 137.255 542.987 138.444 542.987C139.633 542.987 140.674 543.27 141.566 543.836C142.463 544.402 143.161 545.197 143.658 546.22C144.161 547.244 144.413 548.441 144.413 549.814C144.413 551.174 144.161 552.364 143.658 553.381C143.161 554.399 142.463 555.191 141.566 555.757C140.674 556.323 139.633 556.606 138.444 556.606ZM138.444 554.788C139.347 554.788 140.091 554.556 140.674 554.093C141.257 553.63 141.689 553.021 141.969 552.266C142.249 551.512 142.389 550.694 142.389 549.814C142.389 548.933 142.249 548.113 141.969 547.352C141.689 546.592 141.257 545.977 140.674 545.508C140.091 545.04 139.347 544.805 138.444 544.805C137.541 544.805 136.797 545.04 136.214 545.508C135.631 545.977 135.199 546.592 134.919 547.352C134.639 548.113 134.499 548.933 134.499 549.814C134.499 550.694 134.639 551.512 134.919 552.266C135.199 553.021 135.631 553.63 136.214 554.093C136.797 554.556 137.541 554.788 138.444 554.788ZM152.82 561.546C151.842 561.546 151.002 561.42 150.298 561.169C149.595 560.923 149.009 560.597 148.54 560.191C148.077 559.791 147.708 559.362 147.434 558.904L149.046 557.772C149.229 558.012 149.461 558.287 149.741 558.596C150.021 558.91 150.404 559.182 150.89 559.41C151.382 559.645 152.025 559.762 152.82 559.762C153.883 559.762 154.761 559.505 155.453 558.99C156.145 558.476 156.49 557.669 156.49 556.572V553.896H156.319C156.17 554.136 155.959 554.433 155.684 554.788C155.416 555.137 155.027 555.448 154.518 555.723C154.015 555.991 153.334 556.126 152.477 556.126C151.413 556.126 150.459 555.874 149.612 555.371C148.772 554.868 148.106 554.136 147.614 553.176C147.128 552.215 146.885 551.049 146.885 549.676C146.885 548.327 147.122 547.152 147.597 546.152C148.071 545.145 148.732 544.368 149.578 543.819C150.424 543.264 151.402 542.987 152.511 542.987C153.369 542.987 154.049 543.13 154.552 543.416C155.061 543.696 155.45 544.016 155.719 544.376C155.993 544.731 156.205 545.022 156.353 545.251H156.559V543.159H158.514V556.709C158.514 557.841 158.257 558.761 157.743 559.47C157.234 560.185 156.548 560.708 155.684 561.04C154.827 561.377 153.872 561.546 152.82 561.546ZM152.751 554.308C153.563 554.308 154.249 554.122 154.81 553.75C155.37 553.378 155.796 552.844 156.087 552.146C156.379 551.449 156.525 550.614 156.525 549.642C156.525 548.693 156.382 547.855 156.096 547.129C155.81 546.403 155.387 545.834 154.827 545.423C154.266 545.011 153.575 544.805 152.751 544.805C151.894 544.805 151.179 545.022 150.607 545.457C150.041 545.891 149.615 546.475 149.329 547.206C149.049 547.938 148.909 548.75 148.909 549.642C148.909 550.557 149.052 551.366 149.338 552.069C149.629 552.767 150.058 553.316 150.624 553.716C151.196 554.11 151.905 554.308 152.751 554.308ZM167.742 556.606C166.473 556.606 165.378 556.326 164.458 555.766C163.543 555.199 162.837 554.41 162.339 553.398C161.848 552.381 161.602 551.197 161.602 549.848C161.602 548.499 161.848 547.309 162.339 546.28C162.837 545.245 163.529 544.439 164.415 543.862C165.307 543.279 166.347 542.987 167.537 542.987C168.223 542.987 168.9 543.101 169.569 543.33C170.238 543.559 170.847 543.93 171.396 544.445C171.945 544.954 172.382 545.628 172.708 546.469C173.034 547.309 173.197 548.344 173.197 549.573V550.431H163.043V548.682H171.139C171.139 547.938 170.99 547.275 170.693 546.692C170.401 546.109 169.984 545.648 169.441 545.311C168.903 544.974 168.268 544.805 167.537 544.805C166.73 544.805 166.033 545.005 165.444 545.405C164.861 545.8 164.412 546.315 164.098 546.949C163.783 547.584 163.626 548.264 163.626 548.99V550.157C163.626 551.152 163.797 551.995 164.14 552.687C164.489 553.373 164.972 553.896 165.59 554.256C166.207 554.611 166.925 554.788 167.742 554.788C168.274 554.788 168.754 554.714 169.183 554.565C169.618 554.41 169.992 554.182 170.307 553.879C170.621 553.57 170.864 553.187 171.036 552.73L172.991 553.278C172.785 553.942 172.439 554.525 171.953 555.028C171.467 555.525 170.867 555.914 170.152 556.194C169.438 556.469 168.634 556.606 167.742 556.606ZM182.005 543.159V544.874H175.178V543.159H182.005ZM177.168 540.002H179.192V552.558C179.192 553.13 179.275 553.559 179.44 553.844C179.612 554.125 179.829 554.313 180.092 554.41C180.361 554.502 180.644 554.548 180.941 554.548C181.164 554.548 181.347 554.536 181.49 554.513C181.633 554.485 181.747 554.462 181.833 554.445L182.245 556.263C182.108 556.314 181.916 556.366 181.67 556.417C181.424 556.474 181.113 556.503 180.735 556.503C180.164 556.503 179.603 556.38 179.054 556.134C178.511 555.888 178.06 555.514 177.699 555.011C177.345 554.508 177.168 553.873 177.168 553.107V540.002ZM187.356 548.407V556.332H185.332V538.767H187.356V545.217H187.528C187.836 544.536 188.3 543.996 188.917 543.596C189.54 543.19 190.369 542.987 191.404 542.987C192.302 542.987 193.088 543.167 193.763 543.527C194.437 543.882 194.96 544.428 195.332 545.165C195.709 545.897 195.898 546.829 195.898 547.961V556.332H193.874V548.098C193.874 547.052 193.603 546.243 193.059 545.671C192.522 545.094 191.776 544.805 190.821 544.805C190.158 544.805 189.563 544.945 189.037 545.225C188.517 545.506 188.105 545.914 187.802 546.452C187.505 546.989 187.356 547.641 187.356 548.407ZM205.124 556.606C203.855 556.606 202.76 556.326 201.839 555.766C200.924 555.199 200.218 554.41 199.721 553.398C199.229 552.381 198.983 551.197 198.983 549.848C198.983 548.499 199.229 547.309 199.721 546.28C200.218 545.245 200.91 544.439 201.796 543.862C202.688 543.279 203.729 542.987 204.918 542.987C205.604 542.987 206.282 543.101 206.951 543.33C207.62 543.559 208.229 543.93 208.777 544.445C209.326 544.954 209.764 545.628 210.09 546.469C210.415 547.309 210.578 548.344 210.578 549.573V550.431H200.424V548.682H208.52C208.52 547.938 208.371 547.275 208.074 546.692C207.783 546.109 207.365 545.648 206.822 545.311C206.285 544.974 205.65 544.805 204.918 544.805C204.112 544.805 203.414 545.005 202.825 545.405C202.242 545.8 201.793 546.315 201.479 546.949C201.165 547.584 201.007 548.264 201.007 548.99V550.157C201.007 551.152 201.179 551.995 201.522 552.687C201.871 553.373 202.354 553.896 202.971 554.256C203.589 554.611 204.306 554.788 205.124 554.788C205.656 554.788 206.136 554.714 206.565 554.565C206.999 554.41 207.374 554.182 207.688 553.879C208.003 553.57 208.246 553.187 208.417 552.73L210.373 553.278C210.167 553.942 209.821 554.525 209.335 555.028C208.849 555.525 208.249 555.914 207.534 556.194C206.819 556.469 206.016 556.606 205.124 556.606ZM213.657 556.332V543.159H215.613V545.148H215.75C215.99 544.496 216.424 543.968 217.053 543.562C217.682 543.156 218.391 542.953 219.18 542.953C219.329 542.953 219.515 542.956 219.738 542.961C219.961 542.967 220.129 542.976 220.244 542.987V545.045C220.175 545.028 220.018 545.002 219.772 544.968C219.532 544.928 219.278 544.908 219.009 544.908C218.368 544.908 217.797 545.042 217.294 545.311C216.796 545.574 216.402 545.94 216.11 546.409C215.824 546.872 215.681 547.401 215.681 547.995V556.332H213.657ZM232.42 556.332L228.406 543.159H230.533L233.38 553.244H233.518L236.331 543.159H238.492L241.27 553.21H241.408L244.255 543.159H246.382L242.368 556.332H240.379L237.497 546.212H237.291L234.409 556.332H232.42ZM254.133 556.606C252.863 556.606 251.768 556.326 250.848 555.766C249.933 555.199 249.227 554.41 248.73 553.398C248.238 552.381 247.992 551.197 247.992 549.848C247.992 548.499 248.238 547.309 248.73 546.28C249.227 545.245 249.919 544.439 250.805 543.862C251.697 543.279 252.738 542.987 253.927 542.987C254.613 542.987 255.29 543.101 255.959 543.33C256.628 543.559 257.237 543.93 257.786 544.445C258.335 544.954 258.772 545.628 259.098 546.469C259.424 547.309 259.587 548.344 259.587 549.573V550.431H249.433V548.682H257.529C257.529 547.938 257.38 547.275 257.083 546.692C256.791 546.109 256.374 545.648 255.831 545.311C255.293 544.974 254.659 544.805 253.927 544.805C253.121 544.805 252.423 545.005 251.834 545.405C251.251 545.8 250.802 546.315 250.488 546.949C250.173 547.584 250.016 548.264 250.016 548.99V550.157C250.016 551.152 250.188 551.995 250.531 552.687C250.879 553.373 251.362 553.896 251.98 554.256C252.597 554.611 253.315 554.788 254.133 554.788C254.664 554.788 255.145 554.714 255.573 554.565C256.008 554.41 256.382 554.182 256.697 553.879C257.011 553.57 257.254 553.187 257.426 552.73L259.381 553.278C259.175 553.942 258.829 554.525 258.344 555.028C257.858 555.525 257.257 555.914 256.543 556.194C255.828 556.469 255.025 556.606 254.133 556.606ZM265.685 553.93L265.548 554.856C265.45 555.508 265.302 556.206 265.102 556.949C264.907 557.692 264.704 558.393 264.493 559.05C264.281 559.708 264.107 560.231 263.97 560.62H262.426C262.5 560.254 262.597 559.771 262.717 559.17C262.837 558.57 262.958 557.898 263.078 557.155C263.203 556.417 263.306 555.663 263.386 554.891L263.489 553.93H265.685ZM282.093 543.159V544.874H274.992V543.159H282.093ZM277.119 556.332V541.34C277.119 540.586 277.296 539.957 277.651 539.454C278.005 538.95 278.465 538.573 279.031 538.322C279.597 538.07 280.195 537.944 280.824 537.944C281.321 537.944 281.727 537.984 282.042 538.064C282.356 538.144 282.591 538.219 282.745 538.287L282.162 540.037C282.059 540.002 281.916 539.96 281.733 539.908C281.556 539.857 281.321 539.831 281.03 539.831C280.361 539.831 279.878 540 279.58 540.337C279.289 540.674 279.143 541.169 279.143 541.821V556.332H277.119ZM289.739 556.606C288.55 556.606 287.506 556.323 286.609 555.757C285.717 555.191 285.019 554.399 284.516 553.381C284.019 552.364 283.77 551.174 283.77 549.814C283.77 548.441 284.019 547.244 284.516 546.22C285.019 545.197 285.717 544.402 286.609 543.836C287.506 543.27 288.55 542.987 289.739 542.987C290.928 542.987 291.969 543.27 292.861 543.836C293.758 544.402 294.456 545.197 294.953 546.22C295.456 547.244 295.708 548.441 295.708 549.814C295.708 551.174 295.456 552.364 294.953 553.381C294.456 554.399 293.758 555.191 292.861 555.757C291.969 556.323 290.928 556.606 289.739 556.606ZM289.739 554.788C290.642 554.788 291.385 554.556 291.969 554.093C292.552 553.63 292.983 553.021 293.264 552.266C293.544 551.512 293.684 550.694 293.684 549.814C293.684 548.933 293.544 548.113 293.264 547.352C292.983 546.592 292.552 545.977 291.969 545.508C291.385 545.04 290.642 544.805 289.739 544.805C288.835 544.805 288.092 545.04 287.509 545.508C286.926 545.977 286.494 546.592 286.214 547.352C285.934 548.113 285.794 548.933 285.794 549.814C285.794 550.694 285.934 551.512 286.214 552.266C286.494 553.021 286.926 553.63 287.509 554.093C288.092 554.556 288.835 554.788 289.739 554.788ZM298.797 556.332V543.159H300.753V545.148H300.89C301.13 544.496 301.565 543.968 302.194 543.562C302.823 543.156 303.531 542.953 304.321 542.953C304.469 542.953 304.655 542.956 304.878 542.961C305.101 542.967 305.27 542.976 305.384 542.987V545.045C305.315 545.028 305.158 545.002 304.912 544.968C304.672 544.928 304.418 544.908 304.149 544.908C303.509 544.908 302.937 545.042 302.434 545.311C301.936 545.574 301.542 545.94 301.25 546.409C300.964 546.872 300.821 547.401 300.821 547.995V556.332H298.797ZM312.905 556.606C311.636 556.606 310.541 556.326 309.621 555.766C308.706 555.199 308 554.41 307.502 553.398C307.011 552.381 306.765 551.197 306.765 549.848C306.765 548.499 307.011 547.309 307.502 546.28C308 545.245 308.692 544.439 309.578 543.862C310.47 543.279 311.51 542.987 312.699 542.987C313.386 542.987 314.063 543.101 314.732 543.33C315.401 543.559 316.01 543.93 316.559 544.445C317.108 544.954 317.545 545.628 317.871 546.469C318.197 547.309 318.36 548.344 318.36 549.573V550.431H308.206V548.682H316.301C316.301 547.938 316.153 547.275 315.855 546.692C315.564 546.109 315.147 545.648 314.603 545.311C314.066 544.974 313.431 544.805 312.699 544.805C311.893 544.805 311.196 545.005 310.607 545.405C310.024 545.8 309.575 546.315 309.26 546.949C308.946 547.584 308.789 548.264 308.789 548.99V550.157C308.789 551.152 308.96 551.995 309.303 552.687C309.652 553.373 310.135 553.896 310.753 554.256C311.37 554.611 312.088 554.788 312.905 554.788C313.437 554.788 313.917 554.714 314.346 554.565C314.781 554.41 315.155 554.182 315.47 553.879C315.784 553.57 316.027 553.187 316.199 552.73L318.154 553.278C317.948 553.942 317.602 554.525 317.116 555.028C316.63 555.525 316.03 555.914 315.315 556.194C314.601 556.469 313.797 556.606 312.905 556.606ZM331.809 543.159L326.938 556.332H324.88L320.009 543.159H322.204L325.84 553.656H325.978L329.614 543.159H331.809ZM339.532 556.606C338.263 556.606 337.168 556.326 336.248 555.766C335.333 555.199 334.627 554.41 334.129 553.398C333.638 552.381 333.392 551.197 333.392 549.848C333.392 548.499 333.638 547.309 334.129 546.28C334.627 545.245 335.318 544.439 336.205 543.862C337.097 543.279 338.137 542.987 339.326 542.987C340.013 542.987 340.69 543.101 341.359 543.33C342.028 543.559 342.637 543.93 343.186 544.445C343.735 544.954 344.172 545.628 344.498 546.469C344.824 547.309 344.987 548.344 344.987 549.573V550.431H334.832V548.682H342.928C342.928 547.938 342.78 547.275 342.482 546.692C342.191 546.109 341.773 545.648 341.23 545.311C340.693 544.974 340.058 544.805 339.326 544.805C338.52 544.805 337.823 545.005 337.234 545.405C336.651 545.8 336.202 546.315 335.887 546.949C335.573 547.584 335.416 548.264 335.416 548.99V550.157C335.416 551.152 335.587 551.995 335.93 552.687C336.279 553.373 336.762 553.896 337.38 554.256C337.997 554.611 338.715 554.788 339.532 554.788C340.064 554.788 340.544 554.714 340.973 554.565C341.408 554.41 341.782 554.182 342.097 553.879C342.411 553.57 342.654 553.187 342.825 552.73L344.781 553.278C344.575 553.942 344.229 554.525 343.743 555.028C343.257 555.525 342.657 555.914 341.942 556.194C341.227 556.469 340.424 556.606 339.532 556.606ZM348.066 556.332V543.159H350.021V545.148H350.158C350.398 544.496 350.833 543.968 351.462 543.562C352.091 543.156 352.8 542.953 353.589 542.953C353.737 542.953 353.923 542.956 354.146 542.961C354.369 542.967 354.538 542.976 354.652 542.987V545.045C354.583 545.028 354.426 545.002 354.18 544.968C353.94 544.928 353.686 544.908 353.417 544.908C352.777 544.908 352.205 545.042 351.702 545.311C351.204 545.574 350.81 545.94 350.518 546.409C350.232 546.872 350.09 547.401 350.09 547.995V556.332H348.066ZM366.828 556.332L362.814 543.159H364.941L367.789 553.244H367.926L370.739 543.159H372.9L375.679 553.21H375.816L378.663 543.159H380.79L376.777 556.332H374.787L371.905 546.212H371.699L368.818 556.332H366.828ZM388.541 556.606C387.272 556.606 386.177 556.326 385.256 555.766C384.341 555.199 383.635 554.41 383.138 553.398C382.646 552.381 382.4 551.197 382.4 549.848C382.4 548.499 382.646 547.309 383.138 546.28C383.635 545.245 384.327 544.439 385.213 543.862C386.105 543.279 387.146 542.987 388.335 542.987C389.021 542.987 389.699 543.101 390.368 543.33C391.037 543.559 391.646 543.93 392.194 544.445C392.743 544.954 393.181 545.628 393.507 546.469C393.832 547.309 393.995 548.344 393.995 549.573V550.431H383.841V548.682H391.937C391.937 547.938 391.788 547.275 391.491 546.692C391.2 546.109 390.782 545.648 390.239 545.311C389.702 544.974 389.067 544.805 388.335 544.805C387.529 544.805 386.831 545.005 386.243 545.405C385.659 545.8 385.211 546.315 384.896 546.949C384.582 547.584 384.424 548.264 384.424 548.99V550.157C384.424 551.152 384.596 551.995 384.939 552.687C385.288 553.373 385.771 553.896 386.388 554.256C387.006 554.611 387.723 554.788 388.541 554.788C389.073 554.788 389.553 554.714 389.982 554.565C390.416 554.41 390.791 554.182 391.105 553.879C391.42 553.57 391.663 553.187 391.834 552.73L393.79 553.278C393.584 553.942 393.238 554.525 392.752 555.028C392.266 555.525 391.666 555.914 390.951 556.194C390.236 556.469 389.433 556.606 388.541 556.606Z" fill="#30556A"/>
<defs>
<clipPath id="clip0_287_12">
<rect width="433.31" height="392.14" fill="white" transform="translate(42)"/>
</clipPath>
</defs>
</svg>
